<svg width="48" height="48" viewBox="0 0 48 48" fill="none" stroke="#0055FF" stroke-width="2" stroke-linecap="round" stroke-linejoin="round" xmlns="http://www.w3.org/2000/svg">
    <path d="M6 42 L6 30 L10 30 L10 42 Z"/>
    <path d="M14 42 L14 22 L18 22 L18 42 Z"/>
    <path d="M22 42 L22 34 L26 34 L26 42 Z"/>
    <path d="M30 42 L30 18 L34 18 L34 42 Z"/>
    <path d="M38 42 L38 26 L42 26 L42 42 Z"/>
    <path d="M6 10 L10 6 L14 10 L10 14 Z"/>
    <path d="M18 10 L22 6 L26 10 L22 14 Z"/>
    <path d="M30 10 L34 6 L38 10 L34 14 Z"/>
</svg>